<?xml version="1.0" standalone="no"?>
<!DOCTYPE svg PUBLIC "-//W3C//DTD SVG 20010904//EN"
 "http://www.w3.org/TR/2001/REC-SVG-20010904/DTD/svg10.dtd">
<svg version="1.0" xmlns="http://www.w3.org/2000/svg"
 width="512.000000pt" height="512.000000pt" viewBox="0 0 512.000000 512.000000"
 preserveAspectRatio="xMidYMid meet">
<metadata>
Created by potrace 1.11, written by Peter Selinger 2001-2013
</metadata>
<g transform="translate(0.000000,512.000000) scale(0.100000,-0.100000)"
fill="#000000" stroke="none">
<path d="M2005 4791 c-92 -24 -173 -90 -215 -176 l-25 -50 0 -2005 0 -2005 25
-50 c32 -65 92 -124 155 -155 73 -35 199 -35 270 0 64 32 124 92 155 155 l25
50 0 2005 0 2005 -25 50 c-32 63 -95 126 -156 154 -51 25 -157 36 -209 22z"/>
<path d="M3260 3823 c-64 -22 -125 -67 -158 -116 -61 -92 -57 33 -60 -1592 -2
-1089 0 -1505 8 -1545 21 -101 98 -189 200 -231 20 -8 69 -14 115 -14 64 1 90
5 130 25 64 31 124 91 155 155 l25 50 0 1525 0 1525 -25 50 c-33 65 -93 125
-155 154 -63 30 -170 36 -235 14z"/>
<path d="M725 2871 c-92 -24 -173 -90 -215 -176 l-25 -50 0 -1045 0 -1045 25
-50 c32 -64 92 -124 155 -155 41 -19 66 -24 135 -24 73 0 92 3 138 27 84 42
137 104 166 193 15 46 16 141 14 1075 l-3 1024 -25 50 c-32 63 -95 126 -156
154 -51 25 -157 36 -209 22z"/>
<path d="M4540 1744 c-100 -36 -182 -122 -209 -219 -7 -27 -10 -189 -8 -505
l2 -465 25 -50 c32 -64 92 -124 155 -155 41 -19 66 -24 135 -24 73 0 92 3 138
27 84 42 137 104 166 193 14 44 16 107 16 497 -1 488 -2 496 -62 584 -72 106
-237 160 -358 117z"/>
</g>
</svg>
